<svg xmlns="http://www.w3.org/2000/svg" xmlns:xlink="http://www.w3.org/1999/xlink" width="1366" zoomAndPan="magnify" viewBox="0 0 1024.5 576" height="768" preserveAspectRatio="xMidYMid meet" version="1.0"><defs><g/></defs><g fill="#b7cdf5" fill-opacity="1"><g transform="translate(149.05915, 335.085985)"><g><path d="M 0 0 L 209.394531 0 C 250.734375 0 280.996094 -25.128906 280.996094 -59.441406 C 280.996094 -93.753906 250.734375 -118.882812 209.394531 -118.882812 L 81.328125 -118.882812 C 75.113281 -118.882812 70.25 -123.476562 70.25 -129.691406 C 70.25 -135.902344 75.113281 -140.496094 81.328125 -140.496094 L 280.996094 -140.496094 L 280.996094 -189.132812 L 71.597656 -189.132812 C 30.261719 -189.132812 0 -164.003906 0 -129.691406 C 0 -95.375 30.261719 -70.25 71.597656 -70.25 L 199.667969 -70.25 C 205.882812 -70.25 210.746094 -65.65625 210.746094 -59.441406 C 210.746094 -53.226562 205.882812 -48.632812 199.667969 -48.632812 L 0 -48.632812 Z M 0 0 "/></g></g></g><g fill="#b7cdf5" fill-opacity="1"><g transform="translate(588.277591, 339.384757)"><g><path d="M 211.441406 -189.753906 L 70.480469 -189.753906 C 29.820312 -189.753906 0 -164.273438 0 -130.117188 L 0 0 L 70.480469 0 L 70.480469 -130.117188 C 70.480469 -136.351562 75.359375 -140.960938 81.59375 -140.960938 L 200.328125 -140.960938 C 206.5625 -140.960938 211.441406 -136.351562 211.441406 -130.117188 L 211.441406 0 L 281.921875 0 L 281.921875 -130.117188 C 281.921875 -164.273438 252.101562 -189.753906 211.441406 -189.753906 Z M 211.441406 -189.753906 "/></g></g></g><g fill="#b7cdf5" fill-opacity="1"><g transform="translate(458.104502, 420.441413)"><g><path d="M 50.097656 0 L 149.332031 0 C 178.816406 0 200.398438 -17.921875 200.398438 -42.390625 L 200.398438 -134.882812 L 150.296875 -134.882812 L 150.296875 -84.78125 L 58 -84.78125 C 53.566406 -84.78125 50.097656 -88.058594 50.097656 -92.492188 L 50.097656 -134.882812 L 0 -134.882812 L 0 -92.492188 C 0 -68.210938 21.195312 -50.097656 50.097656 -50.097656 L 150.296875 -50.097656 L 150.296875 -42.390625 C 150.296875 -37.960938 146.828125 -34.683594 142.398438 -34.683594 L 58 -34.683594 C 53.566406 -34.683594 50.097656 -37.960938 50.097656 -42.390625 L 0 -42.390625 C 0 -18.113281 21.195312 0 50.097656 0 Z M 50.097656 0 "/></g></g></g><g fill="#0e1a69" fill-opacity="1"><g transform="translate(424.980366, 335.085985)"><g><path d="M 0 -189.132812 L 0 -140.496094 L 21.613281 -140.496094 C 27.828125 -140.496094 32.691406 -135.902344 32.691406 -129.691406 L 32.691406 0 L 102.941406 0 L 102.941406 -129.691406 C 102.941406 -163.734375 73.21875 -189.132812 32.691406 -189.132812 Z M 0 -189.132812 "/></g></g></g><g fill="#0e1a69" fill-opacity="1"><g transform="translate(554.940327, 335.085985)"><g><path d="M 0 -189.132812 L 0 -140.496094 L 21.613281 -140.496094 C 27.828125 -140.496094 32.691406 -135.902344 32.691406 -129.691406 L 32.691406 0 L 102.941406 0 L 102.941406 -129.691406 C 102.941406 -163.734375 73.21875 -189.132812 32.691406 -189.132812 Z M 0 -189.132812 "/></g></g></g></svg>